<svg xmlns="http://www.w3.org/2000/svg" viewBox="0 0 100 100">
  <defs>
    <linearGradient id="g1" x1="0%" y1="0%" x2="100%" y2="100%">
      <stop offset="0%" style="stop-color:#00d4ff"/>
      <stop offset="100%" style="stop-color:#0099cc"/>
    </linearGradient>
    <linearGradient id="g2" x1="0%" y1="100%" x2="100%" y2="0%">
      <stop offset="0%" style="stop-color:#00d4ff;stop-opacity:0.3"/>
      <stop offset="100%" style="stop-color:#00d4ff;stop-opacity:0"/>
    </linearGradient>
  </defs>
  <rect width="100" height="100" rx="20" fill="#0a0e14"/>
  <circle cx="50" cy="50" r="35" fill="url(#g2)"/>
  <circle cx="50" cy="50" r="28" fill="none" stroke="url(#g1)" stroke-width="2"/>
  <circle cx="50" cy="50" r="20" fill="none" stroke="url(#g1)" stroke-width="1.5" stroke-dasharray="4 2"/>
  <circle cx="50" cy="50" r="12" fill="none" stroke="url(#g1)" stroke-width="1"/>
  <circle cx="50" cy="50" r="4" fill="url(#g1)"/>
  <path d="M50 15 L53 22 L50 20 L47 22 Z" fill="url(#g1)"/>
  <path d="M50 85 L53 78 L50 80 L47 78 Z" fill="url(#g1)"/>
  <path d="M15 50 L22 47 L20 50 L22 53 Z" fill="url(#g1)"/>
  <path d="M85 50 L78 47 L80 50 L78 53 Z" fill="url(#g1)"/>
  <text x="50" y="92" text-anchor="middle" font-family="monospace" font-size="7" fill="url(#g1)">GLOBALPULSE</text>
</svg>