<svg xmlns="http://www.w3.org/2000/svg" viewBox="0 0 100 100">
  <defs>
    <linearGradient id="g1" x1="0%" y1="0%" x2="100%" y2="100%">
      <stop offset="0%" style="stop-color:#65ffd1"/>
      <stop offset="55%" style="stop-color:#22c9ff"/>
      <stop offset="100%" style="stop-color:#ffd166"/>
    </linearGradient>
    <linearGradient id="g2" x1="0%" y1="100%" x2="100%" y2="0%">
      <stop offset="0%" style="stop-color:#65ffd1;stop-opacity:0.22"/>
      <stop offset="100%" style="stop-color:#ffd166;stop-opacity:0"/>
    </linearGradient>
  </defs>
  <rect width="100" height="100" rx="8" fill="#061310"/>
  <path d="M12 12h22v4H16v18h-4zM66 12h22v22h-4V16H66zM12 66h4v18h18v4H12zM84 66h4v22H66v-4h18z" fill="url(#g1)"/>
  <circle cx="50" cy="50" r="35" fill="url(#g2)"/>
  <circle cx="50" cy="50" r="28" fill="none" stroke="url(#g1)" stroke-width="2"/>
  <circle cx="50" cy="50" r="20" fill="none" stroke="url(#g1)" stroke-width="1.5" stroke-dasharray="4 2"/>
  <circle cx="50" cy="50" r="12" fill="none" stroke="url(#g1)" stroke-width="1"/>
  <circle cx="50" cy="50" r="4" fill="url(#g1)"/>
  <path d="M50 15 L53 22 L50 20 L47 22 Z" fill="url(#g1)"/>
  <path d="M50 85 L53 78 L50 80 L47 78 Z" fill="url(#g1)"/>
  <path d="M15 50 L22 47 L20 50 L22 53 Z" fill="url(#g1)"/>
  <path d="M85 50 L78 47 L80 50 L78 53 Z" fill="url(#g1)"/>
  <text x="50" y="92" text-anchor="middle" font-family="monospace" font-size="7" fill="url(#g1)">PULSE</text>
</svg>
